<svg width="2942" height="519" viewBox="0 0 2942 519" fill="none" xmlns="http://www.w3.org/2000/svg">
<path d="M858.634 414.739V54.4758H936.993V195.234H1094.78V54.4758H1173.14V414.739H1094.78V263.193H936.993V414.739H858.634V414.739Z" fill="white"/>
<path d="M1321.26 420.128C1304.09 420.128 1288.42 417.247 1274.3 411.501C1260.17 405.756 1249.08 397.129 1241.03 385.621C1232.98 374.113 1228.96 360.092 1228.96 343.559C1228.96 326.306 1233.06 312.369 1241.31 301.766C1249.53 291.162 1260.63 283.071 1274.58 277.493C1288.54 271.915 1304.1 268.063 1321.27 265.902L1402.32 256.203C1399.81 242.534 1393.55 232.651 1383.53 226.537C1373.51 220.423 1361.88 217.374 1348.64 217.374C1337.54 217.374 1325.84 219.351 1313.49 223.304C1301.14 227.257 1286.73 233.907 1270.28 243.254L1247.2 189.316C1263.3 178.177 1280.47 169.818 1298.72 164.24C1316.97 158.679 1335.21 155.881 1353.46 155.881C1393.53 155.881 1424.2 164.424 1445.5 181.494C1466.79 198.58 1477.44 224.912 1477.44 260.508V414.751H1407.13V386.174C1396.75 398.402 1384.86 407.129 1371.45 412.339C1358.01 417.515 1341.27 420.128 1321.26 420.128ZM1343.79 362.957C1356.31 362.957 1366.94 360.628 1375.73 355.938C1384.5 351.265 1391.3 344.983 1396.11 337.06C1400.95 329.153 1403.37 320.711 1403.37 311.716V304.161L1345.94 311.716C1331.99 313.525 1321.61 316.49 1314.82 320.61C1308.02 324.748 1304.62 330.946 1304.62 339.221C1304.62 347.127 1307.92 353.074 1314.55 357.027C1321.16 360.997 1330.91 362.957 1343.79 362.957Z" fill="white"/>
<path d="M1570.27 414.733L1483.32 161.257H1562.75L1609.44 323.591L1659.9 161.257H1724.84L1775.28 323.591L1823.03 161.257H1901.92L1814.45 414.733H1741.99L1693.15 256.168L1642.69 414.733H1570.27V414.733Z" fill="white"/>
<path d="M1941.12 414.739V54.4758H2015.17V260.496L2108.55 161.263H2193.88L2095.13 263.729L2199.25 414.739H2112.84L2045.23 315.506L2015.17 347.333V414.756H1941.12V414.739Z" fill="white"/>
<path d="M2275.45 122.432C2262.21 122.432 2251.83 118.58 2244.33 110.841C2236.81 103.119 2233.06 93.3193 2233.06 81.4428C2233.06 69.5831 2236.81 59.8676 2244.33 52.3129C2251.85 44.7582 2262.21 40.9893 2275.45 40.9893C2288.33 40.9893 2298.62 44.8587 2306.3 52.5809C2313.99 60.3198 2317.84 70.1024 2317.84 81.9789C2317.84 93.8553 2313.99 103.554 2306.3 111.109C2298.6 118.647 2288.33 122.432 2275.45 122.432ZM2238.41 414.737V161.261H2312.47V414.737H2238.41V414.737Z" fill="white"/>
<path d="M2376.89 414.735V161.26H2447.19V191.998C2455.06 180.858 2465.45 172.047 2478.31 165.565C2491.2 159.099 2507.3 155.866 2526.62 155.866C2554.89 155.866 2577.24 164.04 2593.71 180.406C2610.16 196.772 2618.4 222.032 2618.4 256.187V414.752H2544.34V267.511C2544.34 251.698 2541.02 239.922 2534.4 232.183C2527.77 224.461 2517.5 220.591 2503.55 220.591C2487.45 220.591 2474.66 225.902 2465.18 236.505C2455.69 247.108 2450.96 262.486 2450.96 282.62V414.752H2376.89V414.735Z" fill="white"/>
<path d="M2798.7 518.289C2776.88 518.289 2756.31 515.139 2736.98 508.858C2717.66 502.559 2699.22 492.76 2681.7 479.46L2704.77 424.986C2721.59 436.125 2737.51 444.031 2752.54 448.722C2767.58 453.395 2781.88 455.74 2795.48 455.74C2817.67 455.74 2835.2 450.162 2848.07 439.023C2860.96 427.867 2867.39 411.518 2867.39 389.943V372.136C2859.52 381.5 2849.22 389.122 2836.54 395.068C2823.84 400.998 2808.72 403.963 2791.18 403.963C2770.43 403.963 2750.84 399.206 2732.41 389.675C2713.99 380.16 2699.04 366.123 2687.6 347.613C2676.15 329.103 2670.43 306.54 2670.43 279.922C2670.43 253.322 2676.15 230.758 2687.6 212.232C2699.06 193.722 2713.99 179.701 2732.41 170.17C2750.83 160.655 2770.41 155.881 2791.18 155.881C2810.14 155.881 2826.34 159.299 2839.76 166.133C2853.17 172.967 2863.81 181.594 2871.69 192.03V161.258H2942V376.994C2942 407.565 2936.1 433.344 2924.28 454.384C2912.48 475.423 2896.01 491.336 2874.91 502.124C2853.79 512.895 2828.4 518.289 2798.7 518.289ZM2808.37 342.47C2820.52 342.47 2831.25 340.041 2840.57 335.184C2849.87 330.326 2857.21 323.24 2862.57 313.876C2867.94 304.529 2870.63 293.206 2870.63 279.906C2870.63 266.605 2867.94 255.282 2862.57 245.935C2857.21 236.587 2849.87 229.485 2840.57 224.627C2831.25 219.77 2820.52 217.341 2808.37 217.341C2796.55 217.341 2785.92 219.77 2776.43 224.627C2766.95 229.485 2759.53 236.587 2754.16 245.935C2748.79 255.282 2746.11 266.622 2746.11 279.906C2746.11 293.206 2748.79 304.529 2754.16 313.876C2759.53 323.223 2766.95 330.326 2776.43 335.184C2785.92 340.041 2796.57 342.47 2808.37 342.47Z" fill="white"/>
<path d="M153.852 1.94678H0V465.781H153.852V1.94678Z" fill="#6527F0"/>
<path d="M354.79 1.94678H200.938V465.781H354.79V1.94678Z" fill="#6527F0"/>
<path d="M489.894 468.292L399.149 265.69C390.065 245.454 390.065 222.288 399.149 202.053L489.894 0.706055H651.246L553.885 233.293C553.735 233.662 553.735 234.064 553.901 234.416L662.481 468.292H489.894Z" fill="#6527F0"/>
</svg>
