<svg width="188" height="33" viewBox="0 0 188 33" fill="none" xmlns="http://www.w3.org/2000/svg">
<path d="M54.7441 26.3977V3.42827H59.7401V12.4026H69.8001V3.42827H74.7961V26.3977H69.8001V16.7355H59.7401V26.3977H54.7441Z" fill="white"/>
<path d="M84.2397 26.7415C83.145 26.7415 82.146 26.5578 81.2459 26.1915C80.3447 25.8252 79.638 25.2752 79.1247 24.5415C78.6113 23.8077 78.3552 22.9138 78.3552 21.8597C78.3552 20.7597 78.6167 19.8711 79.1427 19.1951C79.6667 18.519 80.3744 18.0032 81.264 17.6475C82.1535 17.2919 83.1461 17.0463 84.2407 16.9085L89.4078 16.2901C89.2484 15.4186 88.8488 14.7885 88.2101 14.3987C87.5714 14.0089 86.8296 13.8145 85.9858 13.8145C85.278 13.8145 84.5319 13.9405 83.7444 14.1926C82.9569 14.4446 82.0387 14.8686 80.9898 15.4646L79.5179 12.0256C80.5445 11.3154 81.6391 10.7825 82.8028 10.4268C83.9665 10.0722 85.1292 9.89389 86.2929 9.89389C88.8477 9.89389 90.8032 10.4386 92.1614 11.5269C93.5185 12.6162 94.1976 14.2951 94.1976 16.5646V26.3987H89.7149V24.5767C89.0528 25.3563 88.2951 25.9128 87.4396 26.2449C86.583 26.5749 85.516 26.7415 84.2397 26.7415ZM85.6765 23.0965C86.4746 23.0965 87.1526 22.948 87.7127 22.649C88.2717 22.351 88.7053 21.9505 89.0125 21.4453C89.3207 20.9412 89.4748 20.403 89.4748 19.8295V19.3478L85.8136 19.8295C84.9241 19.9448 84.262 20.1338 83.8294 20.3966C83.3958 20.6604 83.179 21.0555 83.179 21.5831C83.179 22.0872 83.3895 22.4663 83.8124 22.7184C84.2333 22.9715 84.855 23.0965 85.6765 23.0965Z" fill="white"/>
<path d="M100.116 26.3976L94.5728 10.2367H99.6367L102.614 20.5867L105.83 10.2367H109.971L113.187 20.5867L116.232 10.2367H121.262L115.684 26.3976H111.064L107.951 16.288L104.734 26.3976H100.116Z" fill="white"/>
<path d="M123.76 26.3977V3.42827H128.482V16.5635L134.436 10.2367H139.876L133.58 16.7697L140.218 26.3977H134.709L130.398 20.0709L128.482 22.1V26.3987H123.76V26.3977Z" fill="white"/>
<path d="M145.076 7.76112C144.233 7.76112 143.571 7.51548 143.092 7.02207C142.613 6.52972 142.374 5.90495 142.374 5.14774C142.374 4.3916 142.613 3.77216 143.092 3.29049C143.572 2.80882 144.233 2.56853 145.076 2.56853C145.898 2.56853 146.554 2.81523 147.044 3.30758C147.534 3.80099 147.779 4.4247 147.779 5.18191C147.779 5.93912 147.534 6.55749 147.044 7.03916C146.553 7.51975 145.898 7.76112 145.076 7.76112ZM142.715 26.3977V10.2367H147.437V26.3977H142.715Z" fill="white"/>
<path d="M151.544 26.3976V10.2367H156.026V12.1965C156.528 11.4863 157.19 10.9245 158.011 10.5112C158.832 10.099 159.859 9.89284 161.09 9.89284C162.893 9.89284 164.318 10.414 165.368 11.4575C166.417 12.5009 166.942 14.1114 166.942 16.2891V26.3987H162.22V17.011C162.22 16.0028 162.009 15.252 161.587 14.7586C161.164 14.2663 160.509 14.0196 159.62 14.0196C158.593 14.0196 157.778 14.3581 157.173 15.0342C156.568 15.7102 156.267 16.6906 156.267 17.9744V26.3987H151.544V26.3976Z" fill="white"/>
<path d="M178.437 33C177.046 33 175.735 32.7992 174.502 32.3987C173.27 31.9971 172.095 31.3724 170.978 30.5244L172.449 27.0512C173.521 27.7615 174.536 28.2656 175.495 28.5646C176.453 28.8626 177.365 29.0121 178.232 29.0121C179.647 29.0121 180.765 28.6564 181.585 27.9462C182.407 27.2349 182.817 26.1926 182.817 24.817V23.6817C182.315 24.2787 181.659 24.7647 180.85 25.1438C180.04 25.5219 179.076 25.7109 177.958 25.7109C176.635 25.7109 175.386 25.4076 174.211 24.7999C173.037 24.1933 172.083 23.2983 171.354 22.1182C170.624 20.938 170.26 19.4994 170.26 17.8024C170.26 16.1064 170.624 14.6678 171.354 13.4866C172.084 12.3065 173.037 11.4126 174.211 10.8049C175.385 10.1983 176.634 9.89389 177.958 9.89389C179.167 9.89389 180.2 10.1118 181.055 10.5475C181.911 10.9832 182.589 11.5333 183.091 12.1986V10.2367H187.574V23.9914C187.574 25.9405 187.198 27.5842 186.444 28.9256C185.692 30.267 184.642 31.2816 183.296 31.9694C181.95 32.6561 180.331 33 178.437 33ZM179.054 21.7903C179.829 21.7903 180.513 21.6354 181.107 21.3257C181.7 21.016 182.168 20.5642 182.51 19.9672C182.852 19.3713 183.023 18.6493 183.023 17.8013C183.023 16.9533 182.852 16.2314 182.51 15.6354C182.168 15.0395 181.7 14.5867 181.107 14.2769C180.513 13.9672 179.829 13.8124 179.054 13.8124C178.3 13.8124 177.622 13.9672 177.018 14.2769C176.413 14.5867 175.94 15.0395 175.598 15.6354C175.256 16.2314 175.085 16.9544 175.085 17.8013C175.085 18.6493 175.256 19.3713 175.598 19.9672C175.94 20.5632 176.413 21.016 177.018 21.3257C177.622 21.6354 178.301 21.7903 179.054 21.7903Z" fill="white"/>
<path d="M9.80916 0.0790253H0V29.6518H9.80916V0.0790253Z" fill="#6527F0"/>
<path d="M22.6204 0.0790253H12.8113V29.6518H22.6204V0.0790253Z" fill="#6527F0"/>
<path d="M31.2343 29.812L25.4487 16.8946C24.8695 15.6045 24.8695 14.1275 25.4487 12.8373L31.2343 0H41.5217L35.3142 14.8291C35.3046 14.8526 35.3046 14.8783 35.3152 14.9007L42.238 29.812H31.2343Z" fill="#6527F0"/>
</svg>
